<svg width="3339" height="455" viewBox="0 0 3339 455" fill="none" xmlns="http://www.w3.org/2000/svg">
<path d="M1464.78 13.4615V0.130273H1333.06V13.505C1347.57 13.505 1357.53 16.5881 1364.26 22.3201L1165.23 390.297C1148.54 421.215 1127.79 441.712 1093.41 441.712C1034.68 441.712 1049.32 324.553 943.74 294.503C1014.68 280.477 1066.93 226.284 1066.93 150.205C1066.89 58.2754 990.924 0.130273 908.602 0.130273H579.772V13.505C594.287 13.505 604.243 16.5881 610.977 22.3201L411.947 390.297C395.257 421.215 374.509 441.712 340.124 441.712C338.995 441.712 337.866 441.712 336.82 441.712C334.603 441.625 332.469 441.451 330.503 441.191C330.42 441.191 330.336 441.191 330.252 441.191C302.644 437.934 296.119 419.739 296.119 390.732V64.6153C296.119 29.2245 306.409 13.5484 340.166 13.5484V0.130273H208.442V13.5484C244.542 13.5484 252.489 32.2642 252.489 64.6153V367.152L87.7187 62.6612C88.0533 28.6166 98.5947 13.505 131.724 13.505V0.130273H0V13.5484C36.0998 13.5484 44.0476 32.2642 44.0476 64.6153V390.601C44.0476 425.862 33.6318 441.668 0 441.668V455H131.724V441.668C95.7502 441.668 87.6769 422.822 87.6769 390.601V88.8895L252.364 390.992C252.28 425.949 241.823 441.668 208.316 441.668V455H440.936V441.321C402.87 441.321 410.023 417.351 424.789 390.254L491.426 268.058C544.885 270.533 605.665 298.716 623.777 352.952V390.471C623.777 425.862 613.487 441.538 579.73 441.538V454.956H843.137V441.625C807.079 441.625 799.089 422.822 799.089 390.558V380.44C810.091 317.996 847.236 306.879 889.736 301.538C976.2 302.276 936.628 455.26 1093.33 454.956H1194.22V441.277C1156.16 441.277 1163.31 417.307 1178.07 390.211L1244.71 268.015C1298.17 270.49 1358.95 298.672 1377.06 352.909V390.428C1377.06 425.818 1366.77 441.581 1333.01 441.581V454.913H1464.74V441.581C1428.64 441.581 1420.69 422.779 1420.69 390.428V64.5719C1420.69 29.268 1431.11 13.505 1464.74 13.505L1464.78 13.4615ZM623.777 325.508C599.139 281.78 546.349 258.331 498.62 254.9L619.092 33.8275C622.523 41.9044 623.777 52.196 623.777 64.5285V325.508ZM755.418 390.601C755.418 425.862 745.128 441.668 711.454 441.668C675.355 441.668 667.407 422.866 667.407 390.515V64.5719C667.407 29.268 677.823 13.505 711.454 13.505C747.596 13.505 755.418 32.3077 755.418 64.6153V390.601ZM889.192 287.556C847.362 294.286 809.338 303.623 794.865 346.699L799.173 64.5719C799.717 30.1799 807.581 13.505 841.38 13.505H908.644C982.767 13.505 1023.22 80.7257 1023.22 150.161C1023.22 207.829 995.944 265.974 939.222 278.914C922.782 282.649 905.716 284.907 889.234 287.556H889.192ZM1377.06 325.508C1352.42 281.78 1299.63 258.331 1251.91 254.9L1372.42 33.8275C1375.81 41.9044 1377.06 52.196 1377.06 64.5285V325.508Z" fill="#9D795F"/>
<path d="M1909.82 13.8089V0.130273H2010.71V13.8089C1976.29 13.8089 1955.58 33.9578 1938.85 64.8759L1739.82 432.853C1746.55 438.629 1756.51 441.668 1771.02 441.668V455H1639.3V441.668C1672.93 441.668 1683.35 425.862 1683.35 390.601V64.6153C1683.35 32.2642 1675.44 13.5484 1639.3 13.5484V0.130273H1771.02V13.5484C1737.31 13.5484 1726.98 29.2245 1726.98 64.6153V390.601C1726.98 402.847 1728.23 413.182 1731.66 421.259L1925.96 64.8759C1940.73 37.7791 1947.84 13.8089 1909.82 13.8089Z" fill="#9D795F"/>
<path d="M2010.71 0.130273H2142.44V13.5484C2108.72 13.5484 2098.39 29.2245 2098.39 64.6153V390.601C2098.39 422.822 2106.46 441.668 2142.44 441.668V455H2010.71V441.668C2044.34 441.668 2054.76 425.862 2054.76 390.601V64.6153C2054.76 32.2642 2046.85 13.5484 2010.71 13.5484V0.130273Z" fill="#9D795F"/>
<path d="M2372.8 164.274C2372.8 199.404 2357.78 209.913 2323.6 209.913H2230.11V64.5719C2230.11 32.2208 2238.02 13.505 2274.16 13.505H2330.05V0.130273H2142.44V13.5484C2176.15 13.5484 2186.44 29.2245 2186.44 64.6153V390.601C2186.44 422.909 2178.37 441.668 2142.44 441.668V455H2324.78C2325.53 450.657 2326.28 446.402 2327.12 441.668H2274.16C2240.61 441.668 2230.11 425.862 2230.11 390.601V223.548C2230.11 221.073 2290.31 223.678 2323.6 223.678C2354.94 223.678 2372.8 230.843 2372.8 268.97H2385.97V164.274H2372.8Z" fill="#9D795F"/>
<path d="M2441.11 395.682C2441.11 430.812 2426.09 441.668 2391.91 441.668H2321.26L2321.68 455H2454.28V395.682H2441.11Z" fill="#9D795F"/>
<path d="M2454.03 0H2585.76V13.4181C2552.04 13.4181 2541.71 29.0943 2541.71 64.4851V390.471C2541.71 422.692 2549.78 441.668 2585.76 441.668V455H2454.03V441.668C2487.66 441.668 2498.08 425.732 2498.08 390.471V64.4851C2498.08 32.134 2490.17 13.4181 2454.03 13.4181V0Z" fill="#9D795F"/>
<path d="M2967.63 441.668V455C2810.97 455.304 2850.5 302.276 2764.04 301.538C2721.54 306.923 2684.39 318.039 2673.39 380.44V390.558C2673.39 422.822 2681.38 441.625 2717.44 441.625V454.956H2585.72V441.625C2619.39 441.625 2629.68 425.819 2629.68 390.558V64.5719C2629.68 32.2642 2621.9 13.505 2585.72 13.505V0.130273H2782.82C2865.18 0.130273 2941.11 58.2754 2941.11 150.205C2941.11 226.284 2888.86 280.434 2817.92 294.503C2923.54 324.51 2908.86 441.668 2967.59 441.668H2967.63ZM2669.13 346.699C2683.6 303.623 2721.66 294.286 2763.45 287.556C2779.93 284.907 2797 282.649 2813.44 278.914C2870.16 265.974 2897.44 207.872 2897.44 150.161C2897.44 80.6823 2856.94 13.505 2782.82 13.505H2715.56C2681.8 13.505 2673.94 30.2233 2673.39 64.5719L2669.08 346.699H2669.13Z" fill="#9D795F"/>
<path d="M3011.63 390.515V64.5285C3011.63 29.268 3001.22 13.4615 2967.59 13.4615V0.130273H3099.31V13.4615C3084.8 13.4615 3074.84 16.5446 3068.11 22.2767L3267.14 390.254C3283.87 421.172 3304.57 441.668 3339 441.668V455H3238.1V441.668C3276.13 441.668 3269.02 417.394 3254.25 390.254L3187.66 268.058C3134.2 270.533 3073.42 298.716 3055.31 352.996V390.515C3055.31 425.905 3065.6 441.668 3099.35 441.668V455H2967.63V441.668C3003.77 441.668 3011.68 422.866 3011.68 390.515H3011.63ZM3180.46 254.944L3059.95 33.8709C3056.52 41.9478 3055.26 52.2828 3055.26 64.5285V325.552C3079.9 281.824 3132.69 258.374 3180.46 254.944Z" fill="#9D795F"/>
<path d="M2454.45 59.1439V0H2333.6C2329.46 0.0434243 2325.53 0.130273 2321.85 0.173697L2321.43 13.5049H2392.08C2426.26 13.5049 2441.27 24.0136 2441.27 59.1439H2454.45Z" fill="#9D795F"/>
</svg>
