<svg width="156" height="30" viewBox="0 0 156 30" fill="none" xmlns="http://www.w3.org/2000/svg">
    <path d="M10.06 11.64C11.18 12.72 11.74 14.1733 11.74 16C11.74 17.8267 11.18 19.2867 10.06 20.38C8.94 21.46 7.46667 22 5.64 22H1.64V10H5.64C7.46667 10 8.94 10.5467 10.06 11.64ZM5.56 11.3H3.04V20.7H5.56C6.94667 20.7 8.08667 20.28 8.98 19.44C9.87333 18.5867 10.32 17.44 10.32 16C10.32 14.56 9.87333 13.42 8.98 12.58C8.08667 11.7267 6.94667 11.3 5.56 11.3ZM17.94 13.58V14.7H17.48C16.8667 14.7 16.3333 14.9267 15.88 15.38C15.44 15.82 15.22 16.3733 15.22 17.04V22H13.84V13.6H14.82L14.94 15.08H15.02C15.22 14.6 15.5333 14.2333 15.96 13.98C16.4 13.7133 16.9 13.58 17.46 13.58H17.94ZM26.0655 16.82V22H25.1055L24.9455 20.84H24.8455C24.2321 21.7467 23.2721 22.2 21.9655 22.2C20.9655 22.2 20.1721 21.9467 19.5855 21.44C19.0121 20.9333 18.7255 20.2933 18.7255 19.52C18.7255 18.6933 19.0588 18.0333 19.7255 17.54C20.3921 17.0333 21.3388 16.78 22.5655 16.78C23.3655 16.78 24.0921 16.8933 24.7455 17.12V16.82C24.7455 15.3533 23.9455 14.62 22.3455 14.62C21.9455 14.62 21.5455 14.68 21.1455 14.8C20.7588 14.9067 20.4655 15.0133 20.2655 15.12L19.9655 15.3L19.4255 14.16C20.2388 13.6533 21.2455 13.4 22.4455 13.4C24.8588 13.4 26.0655 14.54 26.0655 16.82ZM24.7455 18.82V18.22C24.1588 17.94 23.4721 17.8 22.6855 17.8C20.9788 17.8 20.1255 18.36 20.1255 19.48C20.1255 19.9467 20.2988 20.3333 20.6455 20.64C21.0055 20.9467 21.5055 21.1 22.1455 21.1C22.8921 21.1 23.5121 20.88 24.0055 20.44C24.4988 19.9867 24.7455 19.4467 24.7455 18.82ZM29.9842 21.94C29.8109 22.1133 29.5909 22.2 29.3242 22.2C29.0576 22.2 28.8309 22.1133 28.6442 21.94C28.4709 21.7533 28.3842 21.5333 28.3842 21.28C28.3842 21.0133 28.4709 20.7933 28.6442 20.62C28.8309 20.4333 29.0576 20.34 29.3242 20.34C29.5909 20.34 29.8109 20.4333 29.9842 20.62C30.1709 20.7933 30.2642 21.0133 30.2642 21.28C30.2642 21.5333 30.1709 21.7533 29.9842 21.94ZM47.4608 10V22H46.4608L38.8408 12.48V22H37.4408V10H38.4608L46.0608 19.48V10H47.4608ZM56.9248 16.82V22H55.9648L55.8048 20.84H55.7048C55.0915 21.7467 54.1315 22.2 52.8248 22.2C51.8248 22.2 51.0315 21.9467 50.4448 21.44C49.8715 20.9333 49.5848 20.2933 49.5848 19.52C49.5848 18.6933 49.9182 18.0333 50.5848 17.54C51.2515 17.0333 52.1982 16.78 53.4248 16.78C54.2248 16.78 54.9515 16.8933 55.6048 17.12V16.82C55.6048 15.3533 54.8048 14.62 53.2048 14.62C52.8048 14.62 52.4048 14.68 52.0048 14.8C51.6182 14.9067 51.3248 15.0133 51.1248 15.12L50.8248 15.3L50.2848 14.16C51.0982 13.6533 52.1048 13.4 53.3048 13.4C55.7182 13.4 56.9248 14.54 56.9248 16.82ZM55.6048 18.82V18.22C55.0182 17.94 54.3315 17.8 53.5448 17.8C51.8382 17.8 50.9848 18.36 50.9848 19.48C50.9848 19.9467 51.1582 20.3333 51.5048 20.64C51.8648 20.9467 52.3648 21.1 53.0048 21.1C53.7515 21.1 54.3715 20.88 54.8648 20.44C55.3582 19.9867 55.6048 19.4467 55.6048 18.82ZM63.6236 13.58V14.7H63.1636C62.5503 14.7 62.0169 14.9267 61.5636 15.38C61.1236 15.82 60.9036 16.3733 60.9036 17.04V22H59.5236V13.6H60.5036L60.6236 15.08H60.7036C60.9036 14.6 61.2169 14.2333 61.6436 13.98C62.0836 13.7133 62.5836 13.58 63.1436 13.58H63.6236ZM71.7491 16.82V22H70.7891L70.6291 20.84H70.5291C69.9157 21.7467 68.9557 22.2 67.6491 22.2C66.6491 22.2 65.8557 21.9467 65.2691 21.44C64.6957 20.9333 64.4091 20.2933 64.4091 19.52C64.4091 18.6933 64.7424 18.0333 65.4091 17.54C66.0757 17.0333 67.0224 16.78 68.2491 16.78C69.0491 16.78 69.7757 16.8933 70.4291 17.12V16.82C70.4291 15.3533 69.6291 14.62 68.0291 14.62C67.6291 14.62 67.2291 14.68 66.8291 14.8C66.4424 14.9067 66.1491 15.0133 65.9491 15.12L65.6491 15.3L65.1091 14.16C65.9224 13.6533 66.9291 13.4 68.1291 13.4C70.5424 13.4 71.7491 14.54 71.7491 16.82ZM70.4291 18.82V18.22C69.8424 17.94 69.1557 17.8 68.3691 17.8C66.6624 17.8 65.8091 18.36 65.8091 19.48C65.8091 19.9467 65.9824 20.3333 66.3291 20.64C66.6891 20.9467 67.1891 21.1 67.8291 21.1C68.5757 21.1 69.1957 20.88 69.6891 20.44C70.1824 19.9867 70.4291 19.4467 70.4291 18.82ZM82.195 22L77.055 10H78.495L82.815 20.2L87.155 10H88.595L83.455 22H82.195ZM91.4895 11.5C91.3162 11.6733 91.0962 11.76 90.8295 11.76C90.5629 11.76 90.3362 11.6733 90.1495 11.5C89.9762 11.3133 89.8895 11.0933 89.8895 10.84C89.8895 10.5733 89.9829 10.3533 90.1695 10.18C90.3562 9.99333 90.5762 9.9 90.8295 9.9C91.0829 9.9 91.3029 9.99333 91.4895 10.18C91.6762 10.3533 91.7695 10.5733 91.7695 10.84C91.7695 11.0933 91.6762 11.3133 91.4895 11.5ZM90.1495 22V13.6H91.5295V22H90.1495ZM100.41 20.24L100.93 21.24C100.863 21.3067 100.763 21.4 100.63 21.52C100.497 21.6267 100.17 21.7733 99.6502 21.96C99.1435 22.1333 98.5768 22.22 97.9502 22.22C96.6568 22.22 95.6235 21.82 94.8502 21.02C94.0902 20.2067 93.7102 19.14 93.7102 17.82C93.7102 16.5267 94.0702 15.4667 94.7902 14.64C95.5102 13.8133 96.4635 13.4 97.6502 13.4C98.8235 13.4 99.7302 13.7933 100.37 14.58C101.023 15.3667 101.35 16.3667 101.35 17.58V17.92H95.0902C95.1035 18.92 95.3835 19.6933 95.9302 20.24C96.4768 20.7733 97.1768 21.04 98.0302 21.04C98.4835 21.04 98.9102 20.9733 99.3102 20.84C99.7102 20.7067 99.9902 20.5733 100.15 20.44L100.41 20.24ZM97.6302 14.58C96.2435 14.58 95.4235 15.32 95.1702 16.8H99.9302C99.7302 15.32 98.9635 14.58 97.6302 14.58ZM104.771 11.5C104.597 11.6733 104.377 11.76 104.111 11.76C103.844 11.76 103.617 11.6733 103.431 11.5C103.257 11.3133 103.171 11.0933 103.171 10.84C103.171 10.5733 103.264 10.3533 103.451 10.18C103.637 9.99333 103.857 9.9 104.111 9.9C104.364 9.9 104.584 9.99333 104.771 10.18C104.957 10.3533 105.051 10.5733 105.051 10.84C105.051 11.0933 104.957 11.3133 104.771 11.5ZM103.431 22V13.6H104.811V22H103.431ZM111.631 13.58V14.7H111.171C110.558 14.7 110.025 14.9267 109.571 15.38C109.131 15.82 108.911 16.3733 108.911 17.04V22H107.531V13.6H108.511L108.631 15.08H108.711C108.911 14.6 109.225 14.2333 109.651 13.98C110.091 13.7133 110.591 13.58 111.151 13.58H111.631ZM119.757 16.82V22H118.797L118.637 20.84H118.537C117.924 21.7467 116.964 22.2 115.657 22.2C114.657 22.2 113.864 21.9467 113.277 21.44C112.704 20.9333 112.417 20.2933 112.417 19.52C112.417 18.6933 112.75 18.0333 113.417 17.54C114.084 17.0333 115.03 16.78 116.257 16.78C117.057 16.78 117.784 16.8933 118.437 17.12V16.82C118.437 15.3533 117.637 14.62 116.037 14.62C115.637 14.62 115.237 14.68 114.837 14.8C114.45 14.9067 114.157 15.0133 113.957 15.12L113.657 15.3L113.117 14.16C113.93 13.6533 114.937 13.4 116.137 13.4C118.55 13.4 119.757 14.54 119.757 16.82ZM118.437 18.82V18.22C117.85 17.94 117.164 17.8 116.377 17.8C114.67 17.8 113.817 18.36 113.817 19.48C113.817 19.9467 113.99 20.3333 114.337 20.64C114.697 20.9467 115.197 21.1 115.837 21.1C116.584 21.1 117.204 20.88 117.697 20.44C118.19 19.9867 118.437 19.4467 118.437 18.82Z" fill="#F0CCA8"/>
    <path fill-rule="evenodd" clip-rule="evenodd" d="M139.929 20.6569L144.586 16H138V14L144.586 14L139.929 9.34316L141.343 7.92895L146 12.5858V6H148V12.5858L152.657 7.92895L154.071 9.34317L149.414 14L156 14V16H149.414L154.071 20.6569L152.657 22.0711L148 17.4142V24H146V17.4142L141.343 22.0711L139.929 20.6569Z" fill="#F0CCA8"/>
</svg>
