<svg width="232" height="30" viewBox="0 0 232 30" fill="none" xmlns="http://www.w3.org/2000/svg">
<path d="M0.84 20.86L1.6 19.8C1.69333 19.88 1.82667 19.9867 2 20.12C2.17333 20.2533 2.55333 20.4267 3.14 20.64C3.74 20.8533 4.37333 20.96 5.04 20.96C6.04 20.96 6.78 20.78 7.26 20.42C7.75333 20.0467 8 19.54 8 18.9C8 18.34 7.78 17.8867 7.34 17.54C6.9 17.1933 6.06667 16.84 4.84 16.48C3.41333 16.04 2.39333 15.5667 1.78 15.06C1.16667 14.54 0.86 13.84 0.86 12.96C0.86 11.9733 1.24 11.1933 2 10.62C2.76 10.0333 3.8 9.74 5.12 9.74C5.64 9.74 6.13333 9.78 6.6 9.86C7.06667 9.94 7.44 10.04 7.72 10.16C8.01333 10.2667 8.26667 10.38 8.48 10.5C8.69333 10.62 8.84 10.72 8.92 10.8L9.06 10.92L8.3 12.08C8.22 12 8.1 11.9067 7.94 11.8C7.79333 11.68 7.44 11.5267 6.88 11.34C6.33333 11.1533 5.74667 11.06 5.12 11.06C4.28 11.06 3.6 11.2267 3.08 11.56C2.56 11.8933 2.3 12.36 2.3 12.96C2.3 13.4533 2.52 13.8533 2.96 14.16C3.41333 14.4667 4.24667 14.8 5.46 15.16C6.94 15.5867 7.97333 16.0867 8.56 16.66C9.14667 17.22 9.44 17.96 9.44 18.88C9.44 19.8933 9.06 20.7133 8.3 21.34C7.54 21.9667 6.46 22.28 5.06 22.28C4.51333 22.28 3.99333 22.2267 3.5 22.12C3.02 22.0267 2.62 21.9133 2.3 21.78C1.99333 21.6467 1.72 21.5133 1.48 21.38C1.25333 21.2333 1.09333 21.1067 1 21L0.84 20.86ZM18.5069 16.82V22H17.5469L17.3869 20.84H17.2869C16.6735 21.7467 15.7135 22.2 14.4069 22.2C13.4069 22.2 12.6135 21.9467 12.0269 21.44C11.4535 20.9333 11.1669 20.2933 11.1669 19.52C11.1669 18.6933 11.5002 18.0333 12.1669 17.54C12.8335 17.0333 13.7802 16.78 15.0069 16.78C15.8069 16.78 16.5335 16.8933 17.1869 17.12V16.82C17.1869 15.3533 16.3869 14.62 14.7869 14.62C14.3869 14.62 13.9869 14.68 13.5869 14.8C13.2002 14.9067 12.9069 15.0133 12.7069 15.12L12.4069 15.3L11.8669 14.16C12.6802 13.6533 13.6869 13.4 14.8869 13.4C17.3002 13.4 18.5069 14.54 18.5069 16.82ZM17.1869 18.82V18.22C16.6002 17.94 15.9135 17.8 15.1269 17.8C13.4202 17.8 12.5669 18.36 12.5669 19.48C12.5669 19.9467 12.7402 20.3333 13.0869 20.64C13.4469 20.9467 13.9469 21.1 14.5869 21.1C15.3335 21.1 15.9535 20.88 16.4469 20.44C16.9402 19.9867 17.1869 19.4467 17.1869 18.82ZM26.9856 9.42L25.2456 12.06H24.2456L25.3056 9.16L26.9856 9.42ZM28.5656 13.6V22H27.6856L27.4456 20.8H27.3856C27.2923 20.96 27.1656 21.1267 27.0056 21.3C26.8456 21.46 26.5256 21.6533 26.0456 21.88C25.5656 22.0933 25.019 22.2 24.4056 22.2C23.3256 22.2 22.4856 21.8533 21.8856 21.16C21.299 20.4533 21.0056 19.5133 21.0056 18.34V13.6H22.3856V18.18C22.3856 19.0333 22.579 19.7267 22.9656 20.26C23.3523 20.78 23.9256 21.04 24.6856 21.04C25.4723 21.04 26.079 20.7933 26.5056 20.3C26.9323 19.7933 27.159 19.2467 27.1856 18.66V13.6H28.5656ZM37.6023 14.72H37.6623V9.9H39.0423V22H38.0823L37.8823 20.66H37.8223C37.7957 20.7 37.7623 20.76 37.7223 20.84C37.6823 20.9067 37.569 21.0267 37.3823 21.2C37.209 21.3733 37.0157 21.5267 36.8023 21.66C36.589 21.7933 36.289 21.9133 35.9023 22.02C35.5157 22.14 35.1023 22.2 34.6623 22.2C33.529 22.2 32.5823 21.7933 31.8223 20.98C31.0757 20.1667 30.7023 19.1067 30.7023 17.8C30.7023 16.5067 31.0757 15.4533 31.8223 14.64C32.569 13.8133 33.5023 13.4 34.6223 13.4C35.049 13.4 35.4423 13.4467 35.8023 13.54C36.1623 13.6333 36.449 13.7467 36.6623 13.88C36.8757 14 37.0557 14.1267 37.2023 14.26C37.349 14.38 37.449 14.4867 37.5023 14.58L37.6023 14.72ZM36.9423 20.16C37.489 19.5733 37.7623 18.7867 37.7623 17.8C37.7623 16.8133 37.489 16.0267 36.9423 15.44C36.3957 14.8533 35.7157 14.56 34.9023 14.56C34.1023 14.56 33.4357 14.8667 32.9023 15.48C32.369 16.08 32.1023 16.8533 32.1023 17.8C32.1023 18.7467 32.369 19.5267 32.9023 20.14C33.4357 20.74 34.1023 21.04 34.9023 21.04C35.7157 21.04 36.3957 20.7467 36.9423 20.16ZM47.8906 20.24L48.4106 21.24C48.344 21.3067 48.244 21.4 48.1106 21.52C47.9773 21.6267 47.6506 21.7733 47.1306 21.96C46.624 22.1333 46.0573 22.22 45.4306 22.22C44.1373 22.22 43.104 21.82 42.3306 21.02C41.5706 20.2067 41.1906 19.14 41.1906 17.82C41.1906 16.5267 41.5506 15.4667 42.2706 14.64C42.9906 13.8133 43.944 13.4 45.1306 13.4C46.304 13.4 47.2106 13.7933 47.8506 14.58C48.504 15.3667 48.8306 16.3667 48.8306 17.58V17.92H42.5706C42.584 18.92 42.864 19.6933 43.4106 20.24C43.9573 20.7733 44.6573 21.04 45.5106 21.04C45.964 21.04 46.3906 20.9733 46.7906 20.84C47.1906 20.7067 47.4706 20.5733 47.6306 20.44L47.8906 20.24ZM45.1106 14.58C43.724 14.58 42.904 15.32 42.6506 16.8H47.4106C47.2106 15.32 46.444 14.58 45.1106 14.58ZM56.7839 20.88H56.7239V25.12H55.3439V13.6H56.3239L56.4839 14.84H56.6239C56.6506 14.8 56.6839 14.7467 56.7239 14.68C56.7772 14.6133 56.8906 14.5 57.0639 14.34C57.2372 14.18 57.4306 14.04 57.6439 13.92C57.8706 13.7867 58.1706 13.6667 58.5439 13.56C58.9172 13.4533 59.3172 13.4 59.7439 13.4C60.8639 13.4 61.7972 13.8067 62.5439 14.62C63.2906 15.4333 63.6639 16.4933 63.6639 17.8C63.6639 19.0933 63.2906 20.1533 62.5439 20.98C61.7972 21.7933 60.8772 22.2 59.7839 22.2C59.0906 22.2 58.4906 22.0933 57.9839 21.88C57.4906 21.6533 57.1639 21.4267 57.0039 21.2L56.7839 20.88ZM57.4639 15.44C56.9172 16.0267 56.6439 16.8133 56.6439 17.8C56.6439 18.7867 56.9172 19.5733 57.4639 20.16C58.0106 20.7467 58.6839 21.04 59.4839 21.04C60.2839 21.04 60.9439 20.74 61.4639 20.14C61.9972 19.5267 62.2639 18.7467 62.2639 17.8C62.2639 16.8533 61.9972 16.08 61.4639 15.48C60.9439 14.8667 60.2839 14.56 59.4839 14.56C58.6839 14.56 58.0106 14.8533 57.4639 15.44ZM72.4327 16.82V22H71.4727L71.3127 20.84H71.2127C70.5993 21.7467 69.6393 22.2 68.3327 22.2C67.3327 22.2 66.5393 21.9467 65.9527 21.44C65.3793 20.9333 65.0927 20.2933 65.0927 19.52C65.0927 18.6933 65.426 18.0333 66.0927 17.54C66.7593 17.0333 67.706 16.78 68.9327 16.78C69.7327 16.78 70.4593 16.8933 71.1127 17.12V16.82C71.1127 15.3533 70.3127 14.62 68.7127 14.62C68.3127 14.62 67.9127 14.68 67.5127 14.8C67.126 14.9067 66.8327 15.0133 66.6327 15.12L66.3327 15.3L65.7927 14.16C66.606 13.6533 67.6127 13.4 68.8127 13.4C71.226 13.4 72.4327 14.54 72.4327 16.82ZM71.1127 18.82V18.22C70.526 17.94 69.8393 17.8 69.0527 17.8C67.346 17.8 66.4927 18.36 66.4927 19.48C66.4927 19.9467 66.666 20.3333 67.0127 20.64C67.3727 20.9467 67.8727 21.1 68.5127 21.1C69.2593 21.1 69.8793 20.88 70.3727 20.44C70.866 19.9867 71.1127 19.4467 71.1127 18.82ZM79.1314 13.58V14.7H78.6714C78.0581 14.7 77.5247 14.9267 77.0714 15.38C76.6314 15.82 76.4114 16.3733 76.4114 17.04V22H75.0314V13.6H76.0114L76.1314 15.08H76.2114C76.4114 14.6 76.7247 14.2333 77.1514 13.98C77.5914 13.7133 78.0914 13.58 78.6514 13.58H79.1314ZM87.2569 16.82V22H86.2969L86.1369 20.84H86.0369C85.4235 21.7467 84.4635 22.2 83.1569 22.2C82.1569 22.2 81.3635 21.9467 80.7769 21.44C80.2035 20.9333 79.9169 20.2933 79.9169 19.52C79.9169 18.6933 80.2502 18.0333 80.9169 17.54C81.5835 17.0333 82.5302 16.78 83.7569 16.78C84.5569 16.78 85.2835 16.8933 85.9369 17.12V16.82C85.9369 15.3533 85.1369 14.62 83.5369 14.62C83.1369 14.62 82.7369 14.68 82.3369 14.8C81.9502 14.9067 81.6569 15.0133 81.4569 15.12L81.1569 15.3L80.6169 14.16C81.4302 13.6533 82.4369 13.4 83.6369 13.4C86.0502 13.4 87.2569 14.54 87.2569 16.82ZM85.9369 18.82V18.22C85.3502 17.94 84.6635 17.8 83.8769 17.8C82.1702 17.8 81.3169 18.36 81.3169 19.48C81.3169 19.9467 81.4902 20.3333 81.8369 20.64C82.1969 20.9467 82.6969 21.1 83.3369 21.1C84.0835 21.1 84.7035 20.88 85.1969 20.44C85.6902 19.9867 85.9369 19.4467 85.9369 18.82ZM93.7683 21.16L94.3883 20.2C94.4683 20.2667 94.5883 20.3467 94.7483 20.44C94.9083 20.52 95.2349 20.64 95.7283 20.8C96.2349 20.9467 96.7416 21.02 97.2483 21.02C98.5283 21.02 99.1683 20.6067 99.1683 19.78C99.1683 19.4333 98.9816 19.1533 98.6083 18.94C98.2349 18.7267 97.7816 18.5533 97.2483 18.42C96.7283 18.2867 96.2016 18.14 95.6683 17.98C95.1483 17.8067 94.7016 17.54 94.3283 17.18C93.9549 16.8067 93.7683 16.34 93.7683 15.78C93.7683 15.0733 94.0283 14.5 94.5483 14.06C95.0683 13.62 95.8416 13.4 96.8683 13.4C97.4949 13.4 98.0816 13.46 98.6283 13.58C99.1883 13.6867 99.5883 13.8 99.8283 13.92L100.188 14.08L99.6283 15.26C98.9349 14.8067 98.0549 14.58 96.9883 14.58C95.6949 14.58 95.0483 14.9667 95.0483 15.74C95.0483 16.06 95.2349 16.32 95.6083 16.52C95.9816 16.72 96.4283 16.88 96.9483 17C97.4816 17.12 98.0083 17.2667 98.5283 17.44C99.0616 17.6 99.5149 17.8733 99.8883 18.26C100.262 18.6333 100.448 19.12 100.448 19.72C100.448 20.44 100.182 21.0333 99.6483 21.5C99.1283 21.9667 98.3149 22.2 97.2083 22.2C96.5016 22.2 95.8616 22.1133 95.2883 21.94C94.7149 21.7667 94.3216 21.5933 94.1083 21.42L93.7683 21.16ZM108.672 20.24L109.192 21.24C109.125 21.3067 109.025 21.4 108.892 21.52C108.759 21.6267 108.432 21.7733 107.912 21.96C107.405 22.1333 106.839 22.22 106.212 22.22C104.919 22.22 103.885 21.82 103.112 21.02C102.352 20.2067 101.972 19.14 101.972 17.82C101.972 16.5267 102.332 15.4667 103.052 14.64C103.772 13.8133 104.725 13.4 105.912 13.4C107.085 13.4 107.992 13.7933 108.632 14.58C109.285 15.3667 109.612 16.3667 109.612 17.58V17.92H103.352C103.365 18.92 103.645 19.6933 104.192 20.24C104.739 20.7733 105.439 21.04 106.292 21.04C106.745 21.04 107.172 20.9733 107.572 20.84C107.972 20.7067 108.252 20.5733 108.412 20.44L108.672 20.24ZM105.892 14.58C104.505 14.58 103.685 15.32 103.432 16.8H108.192C107.992 15.32 107.225 14.58 105.892 14.58ZM111.653 22V13.6H112.633L112.753 14.84H112.853C113.453 13.88 114.433 13.4 115.793 13.4C116.873 13.4 117.719 13.7533 118.333 14.46C118.959 15.1667 119.273 16.1 119.273 17.26V22H117.893V17.42C117.893 16.58 117.679 15.8933 117.253 15.36C116.839 14.8267 116.253 14.56 115.493 14.56C114.719 14.56 114.119 14.8133 113.693 15.32C113.279 15.8267 113.059 16.3733 113.033 16.96V22H111.653ZM120.71 13.6H122.29V11.04H123.67V13.6H126.17V14.72H123.67V19.66C123.67 20.5667 124.083 21.02 124.91 21.02C125.097 21.02 125.29 20.9933 125.49 20.94C125.703 20.8733 125.863 20.8067 125.97 20.74L126.15 20.64L126.61 21.64C126.13 22.0133 125.523 22.2 124.79 22.2C123.123 22.2 122.29 21.3467 122.29 19.64V14.72H120.71V13.6ZM129.536 11.5C129.363 11.6733 129.143 11.76 128.876 11.76C128.61 11.76 128.383 11.6733 128.196 11.5C128.023 11.3133 127.936 11.0933 127.936 10.84C127.936 10.5733 128.03 10.3533 128.216 10.18C128.403 9.99333 128.623 9.9 128.876 9.9C129.13 9.9 129.35 9.99333 129.536 10.18C129.723 10.3533 129.816 10.5733 129.816 10.84C129.816 11.0933 129.723 11.3133 129.536 11.5ZM128.196 22V13.6H129.576V22H128.196ZM136.397 13.58V14.7H135.937C135.324 14.7 134.79 14.9267 134.337 15.38C133.897 15.82 133.677 16.3733 133.677 17.04V22H132.297V13.6H133.277L133.397 15.08H133.477C133.677 14.6 133.99 14.2333 134.417 13.98C134.857 13.7133 135.357 13.58 135.917 13.58H136.397ZM142.063 22V13.6H143.043L143.163 14.84H143.263C143.863 13.88 144.843 13.4 146.203 13.4C147.283 13.4 148.129 13.7533 148.743 14.46C149.369 15.1667 149.683 16.1 149.683 17.26V22H148.303V17.42C148.303 16.58 148.089 15.8933 147.663 15.36C147.249 14.8267 146.663 14.56 145.903 14.56C145.129 14.56 144.529 14.8133 144.103 15.32C143.689 15.8267 143.469 16.3733 143.443 16.96V22H142.063ZM158.878 16.82V22H157.918L157.758 20.84H157.658C157.045 21.7467 156.085 22.2 154.778 22.2C153.778 22.2 152.985 21.9467 152.398 21.44C151.825 20.9333 151.538 20.2933 151.538 19.52C151.538 18.6933 151.871 18.0333 152.538 17.54C153.205 17.0333 154.151 16.78 155.378 16.78C156.178 16.78 156.905 16.8933 157.558 17.12V16.82C157.558 15.3533 156.758 14.62 155.158 14.62C154.758 14.62 154.358 14.68 153.958 14.8C153.571 14.9067 153.278 15.0133 153.078 15.12L152.778 15.3L152.238 14.16C153.051 13.6533 154.058 13.4 155.258 13.4C157.671 13.4 158.878 14.54 158.878 16.82ZM157.558 18.82V18.22C156.971 17.94 156.285 17.8 155.498 17.8C153.791 17.8 152.938 18.36 152.938 19.48C152.938 19.9467 153.111 20.3333 153.458 20.64C153.818 20.9467 154.318 21.1 154.958 21.1C155.705 21.1 156.325 20.88 156.818 20.44C157.311 19.9867 157.558 19.4467 157.558 18.82ZM167.389 20.88H167.329V25.12H165.949V13.6H166.929L167.089 14.84H167.229C167.256 14.8 167.289 14.7467 167.329 14.68C167.383 14.6133 167.496 14.5 167.669 14.34C167.843 14.18 168.036 14.04 168.249 13.92C168.476 13.7867 168.776 13.6667 169.149 13.56C169.523 13.4533 169.923 13.4 170.349 13.4C171.469 13.4 172.403 13.8067 173.149 14.62C173.896 15.4333 174.269 16.4933 174.269 17.8C174.269 19.0933 173.896 20.1533 173.149 20.98C172.403 21.7933 171.483 22.2 170.389 22.2C169.696 22.2 169.096 22.0933 168.589 21.88C168.096 21.6533 167.769 21.4267 167.609 21.2L167.389 20.88ZM168.069 15.44C167.523 16.0267 167.249 16.8133 167.249 17.8C167.249 18.7867 167.523 19.5733 168.069 20.16C168.616 20.7467 169.289 21.04 170.089 21.04C170.889 21.04 171.549 20.74 172.069 20.14C172.603 19.5267 172.869 18.7467 172.869 17.8C172.869 16.8533 172.603 16.08 172.069 15.48C171.549 14.8667 170.889 14.56 170.089 14.56C169.289 14.56 168.616 14.8533 168.069 15.44ZM182.578 20.24L183.098 21.24C183.031 21.3067 182.931 21.4 182.798 21.52C182.665 21.6267 182.338 21.7733 181.818 21.96C181.311 22.1333 180.745 22.22 180.118 22.22C178.825 22.22 177.791 21.82 177.018 21.02C176.258 20.2067 175.878 19.14 175.878 17.82C175.878 16.5267 176.238 15.4667 176.958 14.64C177.678 13.8133 178.631 13.4 179.818 13.4C180.991 13.4 181.898 13.7933 182.538 14.58C183.191 15.3667 183.518 16.3667 183.518 17.58V17.92H177.258C177.271 18.92 177.551 19.6933 178.098 20.24C178.645 20.7733 179.345 21.04 180.198 21.04C180.651 21.04 181.078 20.9733 181.478 20.84C181.878 20.7067 182.158 20.5733 182.318 20.44L182.578 20.24ZM179.798 14.58C178.411 14.58 177.591 15.32 177.338 16.8H182.098C181.898 15.32 181.131 14.58 179.798 14.58ZM185.619 22V9.9H186.999V22H185.619ZM195.898 20.24L196.418 21.24C196.352 21.3067 196.252 21.4 196.118 21.52C195.985 21.6267 195.658 21.7733 195.138 21.96C194.632 22.1333 194.065 22.22 193.438 22.22C192.145 22.22 191.112 21.82 190.338 21.02C189.578 20.2067 189.198 19.14 189.198 17.82C189.198 16.5267 189.558 15.4667 190.278 14.64C190.998 13.8133 191.952 13.4 193.138 13.4C194.312 13.4 195.218 13.7933 195.858 14.58C196.512 15.3667 196.838 16.3667 196.838 17.58V17.92H190.578C190.592 18.92 190.872 19.6933 191.418 20.24C191.965 20.7733 192.665 21.04 193.518 21.04C193.972 21.04 194.398 20.9733 194.798 20.84C195.198 20.7067 195.478 20.5733 195.638 20.44L195.898 20.24ZM193.118 14.58C191.732 14.58 190.912 15.32 190.658 16.8H195.418C195.218 15.32 194.452 14.58 193.118 14.58Z" fill="#F0CCA8"/>
<path fill-rule="evenodd" clip-rule="evenodd" d="M215.929 20.6569L220.586 16H214V14L220.586 14L215.929 9.34316L217.343 7.92895L222 12.5858V6H224V12.5858L228.657 7.92895L230.071 9.34317L225.414 14L232 14V16H225.414L230.071 20.6569L228.657 22.0711L224 17.4142V24H222V17.4142L217.343 22.0711L215.929 20.6569Z" fill="#F0CCA8"/>
</svg>
