<svg width="219" height="29" viewBox="0 0 219 29" fill="none" xmlns="http://www.w3.org/2000/svg">
<path d="M96.0716 0.857988V0.00830311H87.4321V0.860756C88.3841 0.860756 89.0371 1.05726 89.4788 1.4226L76.4249 24.8761C75.3302 26.8467 73.9694 28.1531 71.7142 28.1531C67.8622 28.1531 68.8225 20.6858 61.8977 18.7706C66.5508 17.8766 69.9775 14.4225 69.9775 9.57349C69.9748 3.71426 64.9924 0.00830311 59.5931 0.00830311H38.0259V0.860756C38.9779 0.860756 39.6309 1.05726 40.0726 1.4226L27.0187 24.8761C25.924 26.8467 24.5632 28.1531 22.308 28.1531C22.2339 28.1531 22.1598 28.1531 22.0912 28.1531C21.9458 28.1475 21.8059 28.1365 21.6769 28.1199C21.6715 28.1199 21.666 28.1199 21.6605 28.1199C19.8497 27.9123 19.4217 26.7526 19.4217 24.9038V4.11834C19.4217 1.86266 20.0967 0.863523 22.3107 0.863523V0.00830311H13.6712V0.863523C16.0389 0.863523 16.5602 2.0564 16.5602 4.11834V23.4009L5.75327 3.9938C5.77522 1.82392 6.46659 0.860756 8.6395 0.860756V0.00830311H0V0.863523C2.3677 0.863523 2.88898 2.0564 2.88898 4.11834V24.8955C2.88898 27.1429 2.20583 28.1503 0 28.1503V29H8.6395V28.1503C6.28003 28.1503 5.75052 26.9491 5.75052 24.8955V5.66549L16.552 24.9204C16.5465 27.1484 15.8606 28.1503 13.663 28.1503V29H28.92V28.1282C26.4233 28.1282 26.8925 26.6004 27.861 24.8734L32.2315 17.085C35.7377 17.2428 39.7242 19.039 40.9121 22.4959V24.8872C40.9121 27.1429 40.2372 28.142 38.0231 28.142V28.9972H55.2994V28.1475C52.9344 28.1475 52.4104 26.9491 52.4104 24.8927V24.2479C53.132 20.2679 55.5683 19.5594 58.3557 19.2189C64.0267 19.266 61.4313 29.0166 71.7087 28.9972H78.3262V28.1254C75.8295 28.1254 76.2987 26.5976 77.2672 24.8706L81.6377 17.0823C85.144 17.24 89.1304 19.0363 90.3183 22.4931V24.8844C90.3183 27.1401 89.6434 28.1448 87.4294 28.1448V28.9945H96.0689V28.1448C93.7012 28.1448 93.1799 26.9464 93.1799 24.8844V4.11558C93.1799 1.86543 93.863 0.860756 96.0689 0.860756L96.0716 0.857988ZM40.9121 20.7467C39.2962 17.9596 35.8338 16.4651 32.7034 16.2464L40.6048 2.15604C40.8298 2.67083 40.9121 3.32678 40.9121 4.11281V20.7467ZM49.5461 24.8955C49.5461 27.1429 48.8712 28.1503 46.6626 28.1503C44.2949 28.1503 43.7737 26.9519 43.7737 24.89V4.11558C43.7737 1.86543 44.4568 0.860756 46.6626 0.860756C49.0331 0.860756 49.5461 2.05917 49.5461 4.11834V24.8955ZM58.3201 18.3277C55.5765 18.7567 53.0826 19.3518 52.1333 22.0973L52.4159 4.11558C52.4516 1.92355 52.9674 0.860756 55.1842 0.860756H59.5958C64.4574 0.860756 67.1105 5.14516 67.1105 9.57072C67.1105 13.2462 65.3217 16.9522 61.6014 17.777C60.5232 18.015 59.4038 18.1589 58.3228 18.3277H58.3201ZM90.3183 20.7467C88.7024 17.9596 85.24 16.4651 82.1096 16.2464L90.0138 2.15604C90.236 2.67083 90.3183 3.32678 90.3183 4.11281V20.7467Z" fill="#663210"/>
<path d="M125.26 0.88013V0.00830311H131.878V0.88013C129.62 0.88013 128.262 2.16434 127.164 4.13495L114.111 27.5885C114.552 27.9566 115.205 28.1503 116.157 28.1503V29H107.518V28.1503C109.724 28.1503 110.407 27.1429 110.407 24.8955V4.11834C110.407 2.0564 109.888 0.863523 107.518 0.863523V0.00830311H116.157V0.863523C113.946 0.863523 113.268 1.86266 113.268 4.11834V24.8955C113.268 25.676 113.351 26.3347 113.576 26.8495L126.319 4.13495C127.288 2.4079 127.754 0.88013 125.26 0.88013Z" fill="#663210"/>
<path d="M131.878 0.00830311H140.517V0.863523C138.306 0.863523 137.628 1.86266 137.628 4.11834V24.8955C137.628 26.9491 138.158 28.1503 140.517 28.1503V29H131.878V28.1503C134.084 28.1503 134.767 27.1429 134.767 24.8955V4.11834C134.767 2.0564 134.248 0.863523 131.878 0.863523V0.00830311Z" fill="#663210"/>
<path d="M155.626 10.4702C155.626 12.7093 154.641 13.3791 152.4 13.3791H146.268V4.11558C146.268 2.05364 146.786 0.860756 149.157 0.860756H152.822V0.00830311H140.517V0.863523C142.729 0.863523 143.404 1.86266 143.404 4.11834V24.8955C143.404 26.9547 142.874 28.1503 140.517 28.1503V29H152.477C152.526 28.7232 152.575 28.452 152.63 28.1503H149.157C146.957 28.1503 146.268 27.1429 146.268 24.8955V14.2481C146.268 14.0904 150.216 14.2564 152.4 14.2564C154.455 14.2564 155.626 14.7131 155.626 17.1432H156.491V10.4702H155.626Z" fill="#663210"/>
<path d="M160.107 25.2193C160.107 27.4584 159.122 28.1503 156.88 28.1503H152.246L152.274 29H160.971V25.2193H160.107Z" fill="#663210"/>
<path d="M160.954 0H169.594V0.85522C167.382 0.85522 166.705 1.85436 166.705 4.11004V24.8872C166.705 26.9408 167.234 28.1503 169.594 28.1503V29H160.954V28.1503C163.16 28.1503 163.843 27.1346 163.843 24.8872V4.11004C163.843 2.0481 163.325 0.85522 160.954 0.85522V0Z" fill="#663210"/>
<path d="M194.64 28.1503V29C184.365 29.0194 186.958 19.266 181.287 19.2189C178.499 19.5621 176.063 20.2707 175.342 24.2479V24.8927C175.342 26.9491 175.866 28.1475 178.231 28.1475V28.9972H169.591V28.1475C171.8 28.1475 172.475 27.1401 172.475 24.8927V4.11558C172.475 2.0564 171.964 0.860756 169.591 0.860756V0.00830311H182.519C187.921 0.00830311 192.9 3.71426 192.9 9.57349C192.9 14.4225 189.474 17.8738 184.821 18.7706C191.748 20.6831 190.785 28.1503 194.637 28.1503H194.64ZM175.062 22.0973C176.011 19.3518 178.508 18.7567 181.248 18.3277C182.329 18.1589 183.449 18.015 184.527 17.777C188.247 16.9522 190.036 13.249 190.036 9.57072C190.036 5.14239 187.38 0.860756 182.519 0.860756H178.107C175.893 0.860756 175.377 1.92632 175.342 4.11558L175.059 22.0973H175.062Z" fill="#663210"/>
<path d="M197.526 24.89V4.11281C197.526 1.86543 196.843 0.857988 194.637 0.857988V0.00830311H203.277V0.857988C202.325 0.857988 201.672 1.0545 201.23 1.41983L214.284 24.8734C215.381 26.844 216.739 28.1503 218.997 28.1503V29H212.38V28.1503C214.874 28.1503 214.407 26.6032 213.439 24.8734L209.071 17.085C205.565 17.2428 201.578 19.039 200.39 22.4987V24.89C200.39 27.1456 201.065 28.1503 203.279 28.1503V29L194.64 29V28.1503C197.01 28.1503 197.529 26.9519 197.529 24.89H197.526ZM208.599 16.2492L200.695 2.15881C200.47 2.6736 200.388 3.33232 200.388 4.11281V20.7495C202.004 17.9624 205.466 16.4678 208.599 16.2492Z" fill="#663210"/>
<path d="M160.982 3.76961V0H153.056C152.784 0.0027677 152.526 0.00830311 152.285 0.0110708L152.257 0.860756H156.891C159.133 0.860756 160.117 1.53054 160.117 3.76961H160.982Z" fill="#663210"/>
</svg>
