<svg width="1079" height="1544" viewBox="0 0 1079 1544" fill="none" xmlns="http://www.w3.org/2000/svg">
    <path d="M1608.97 0V45.4779C1692.77 45.4779 1730.69 76.7503 1745.86 132.959C1757.96 177.415 1751.91 225.141 1733.29 266.94L1280.93 1281.86L716.547 219.827C667.683 127.645 643.971 46.2955 770.019 46.2955V0H0V45.4779C119.616 45.4779 145.729 109.147 145.729 218.805V1325.4C145.729 1445.17 111.36 1498.73 0 1498.73V1544H435.842V1498.73C316.897 1498.73 290.113 1434.85 290.113 1325.4V298.928L835.203 1324.07C884.068 1416.25 907.78 1497.6 781.731 1497.6V1543.9H1551.75V1498.62C1432.81 1498.62 1406.02 1434.75 1406.02 1325.3L1799.34 443.128C1844.46 341.646 1877.58 235.259 1909.54 128.36C1926.63 71.4361 1966.95 45.3757 2045 45.3757V0H1608.97ZM1115.72 1497.7C1001.76 1497.7 933.316 1429.13 877.923 1324.17L290.305 210.322C291.745 96.1678 326.977 45.4779 435.842 45.4779V46.2955C549.986 46.2955 618.435 114.87 673.827 219.827L1261.44 1333.88C1260.01 1447.53 1224.48 1497.7 1115.72 1497.7Z" fill="#F0CCA8"/>
</svg>
