<svg width="1160" height="632" viewBox="0 0 1160 632" fill="none" xmlns="http://www.w3.org/2000/svg">
<path d="M998.037 8.71571V0H908.284V8.71571C918.173 8.71571 924.961 10.7142 929.542 14.4614L793.921 254.449C782.552 274.6 768.417 287.979 744.98 287.979C704.95 287.979 714.951 211.564 642.992 191.968C691.318 182.808 726.934 147.473 726.934 97.8713C726.934 37.9161 675.172 0 619.08 0H395.019V8.71571C404.908 8.71571 411.696 10.7142 416.277 14.4614L280.656 254.449C269.287 274.6 255.152 287.979 231.715 287.979C230.933 287.979 230.179 287.979 229.452 287.951C227.944 287.896 226.491 287.785 225.15 287.618C225.095 287.591 225.039 287.591 224.983 287.591C206.183 285.453 201.714 273.601 201.714 254.671V42.0519C201.714 18.9581 208.725 8.74347 231.715 8.74347V0H141.962V8.74347C166.572 8.74347 171.964 20.9566 171.964 42.0519V239.377L59.7794 40.8028C60.0029 18.5972 67.182 8.74347 89.7529 8.74347V0H0V8.74347C24.6101 8.74347 30.0014 20.9566 30.0014 42.0519V254.671C30.0014 277.654 22.9061 287.979 0 287.979V296.667H89.7529V287.979C65.2545 287.979 59.7515 275.683 59.7515 254.671V57.9012L171.964 254.948C171.908 277.737 164.784 287.979 141.962 287.979V296.667H300.461V287.757C274.538 287.757 279.399 272.13 289.455 254.449L334.849 174.758C371.275 176.368 412.673 194.743 425.02 230.134V254.615C425.02 277.709 418.009 287.924 395.019 287.924V296.667H574.497V287.979C549.943 287.979 544.495 275.711 544.495 254.671V248.065C551.982 207.345 577.29 200.1 606.258 196.603C665.172 197.075 638.215 296.862 744.98 296.667H813.726V287.757C787.803 287.757 792.664 272.13 802.72 254.449L848.113 174.758C884.54 176.368 925.938 194.743 938.285 230.134V254.615C938.285 277.709 931.274 287.979 908.284 287.979V296.667H998.037V287.979C973.427 287.979 968.035 275.711 968.035 254.615V42.0242C968.035 19.0136 975.131 8.71571 998.037 8.71571ZM425.02 212.23C408.232 183.724 372.253 168.43 339.737 166.181L421.836 22.0113C424.182 27.2852 425.02 34.0024 425.02 42.0242V212.23ZM514.717 254.671C514.717 277.654 507.706 287.979 484.772 287.979C460.162 287.979 454.77 275.711 454.77 254.615V42.0242C454.77 19.0136 461.866 8.71571 484.772 8.71571C509.41 8.74347 514.717 20.9843 514.717 42.0519V254.671ZM605.867 187.471C577.374 191.857 551.451 197.963 541.59 226.053H541.562L544.495 42.0519C544.859 19.6242 550.222 8.74347 573.24 8.74347H619.08C669.585 8.74347 697.156 52.5718 697.156 97.8713C697.156 135.482 678.58 173.398 639.919 181.836C628.717 184.279 617.097 185.75 605.867 187.471ZM938.285 212.23C921.497 183.724 885.517 168.43 853.002 166.181L935.129 22.0113C937.447 27.2852 938.285 34.0024 938.285 42.0242V212.23Z" fill="white"/>
<path d="M186.21 344.243V335.333H254.956V344.243C231.492 344.243 217.385 357.4 205.988 377.551L70.3665 617.538C74.9477 621.313 81.7358 623.312 91.6245 623.312V632H1.89953V623.312C24.8057 623.312 31.901 612.986 31.901 590.004V377.385C31.901 356.289 26.5097 344.076 1.89953 344.076V335.333H91.6245V344.076C68.6625 344.076 61.6231 354.291 61.6231 377.385V590.004C61.6231 597.998 62.4611 604.715 64.8076 609.989L197.188 377.551C207.273 359.87 212.105 344.243 186.182 344.243H186.21Z" fill="white"/>
<path d="M254.956 335.333H344.681V344.076C321.719 344.076 314.68 354.291 314.68 377.385V590.004C314.68 611.016 320.183 623.312 344.681 623.312V632H254.956V623.312C277.863 623.312 284.958 612.986 284.958 590.004V377.385C284.958 356.289 279.567 344.076 254.956 344.076V335.333Z" fill="white"/>
<path d="M501.672 442.392C501.672 465.291 491.42 472.147 468.151 472.147H404.461V377.385C404.461 356.289 409.852 344.076 434.462 344.076H472.537V335.333H344.709V344.076C367.671 344.076 374.711 354.291 374.711 377.385V590.004C374.711 611.071 369.208 623.312 344.709 623.312V632H468.961C469.464 629.169 469.995 626.393 470.553 623.312H434.462C411.584 623.312 404.461 612.986 404.461 590.004V481.057C404.461 479.447 445.468 481.14 468.151 481.14C489.521 481.14 501.672 485.831 501.672 510.674H510.639V442.392H501.672Z" fill="white"/>
<path d="M548.211 593.307C548.211 616.206 537.959 623.284 514.69 623.284H466.559L466.838 631.972H557.178V593.307H548.211Z" fill="white"/>
<path d="M557.01 335.25H646.735V343.993C623.773 343.993 616.734 354.208 616.734 377.301V589.92C616.734 610.932 622.237 623.312 646.735 623.312V632H557.01V623.312C579.916 623.312 587.012 612.931 587.012 589.92V377.301C587.012 356.206 581.62 343.993 557.01 343.993V335.25Z" fill="white"/>
<path d="M906.943 623.284V631.972C800.206 632.167 827.135 532.38 768.221 531.908C739.254 535.433 713.945 542.65 706.459 583.37V589.976C706.459 611.016 711.906 623.284 736.46 623.284V631.972H646.735V623.284C669.669 623.284 676.681 612.959 676.681 589.976V377.357C676.681 356.289 671.373 344.048 646.735 344.048V335.305H781.043C837.163 335.305 888.898 373.221 888.898 433.176C888.898 482.778 853.309 518.113 804.955 527.3C876.914 546.869 866.913 623.284 906.943 623.284ZM703.554 561.358C713.414 533.268 739.365 527.162 767.83 522.776C779.06 521.055 790.708 519.584 801.91 517.141C840.571 508.703 859.148 470.787 859.148 433.176C859.148 387.877 831.576 344.048 781.071 344.048H735.231C712.213 344.048 706.85 354.929 706.515 377.357L703.581 561.358H703.554Z" fill="white"/>
<path d="M936.945 589.948V377.329C936.945 354.346 929.849 344.021 906.943 344.021V335.333H996.668V344.021C986.779 344.021 979.991 346.019 975.41 349.794L1111.03 589.781C1122.43 609.933 1136.54 623.312 1160 623.312V632H1091.25V623.312C1117.18 623.312 1112.32 607.463 1102.26 589.781L1056.87 510.091C1020.44 511.701 979.042 530.076 966.695 565.466V589.948C966.695 613.042 973.706 623.312 996.696 623.312V632H906.971V623.312C931.581 623.312 936.973 611.043 936.973 589.948H936.945ZM1051.98 501.514L969.851 357.344C967.533 362.618 966.667 369.335 966.667 377.329V547.563C983.455 519.029 1019.43 503.735 1051.98 501.514Z" fill="white"/>
<path d="M557.289 373.832V335.25H474.939C472.118 335.277 469.436 335.333 466.95 335.361L466.671 344.076H514.801C538.099 344.076 548.323 350.932 548.323 373.832H557.289Z" fill="white"/>
</svg>
